<svg xmlns="http://www.w3.org/2000/svg" viewBox="0 0 64 64">
  <rect width="64" height="64" rx="14" fill="#0b1118"/>
  <path d="M18 34c0-8 6-14 14-14h8c5 0 9 4 9 9v10c0 4-3 7-7 7-3 0-5-2-6-4h-8c-1 2-3 4-6 4-4 0-7-3-7-7v-5h3Z" fill="#22d3ee"/>
  <circle cx="25" cy="33" r="3" fill="#0b1118"/>
  <path d="M22 33h6M25 30v6" stroke="#0b1118" stroke-width="2" stroke-linecap="round"/>
  <circle cx="41" cy="30" r="2.2" fill="#0b1118"/>
  <circle cx="45" cy="35" r="2.2" fill="#0b1118"/>
  <path d="M20 17h24" stroke="#67e8f9" stroke-width="4" stroke-linecap="round"/>
</svg>
